<svg width="60" height="60" viewBox="0 0 60 60" fill="none" xmlns="http://www.w3.org/2000/svg">
<circle cx="30" cy="30" r="30" fill="white"/>
<path d="M30 55C43.8071 55 55 43.8071 55 30C55 16.1929 43.8071 5 30 5C16.1929 5 5 16.1929 5 30C5 43.8071 16.1929 55 30 55Z" fill="#DD1438"/>
<path d="M52.2845 35.564C49.2123 47.8854 36.7313 55.384 24.407 52.3114C12.0877 49.2395 4.58823 36.7593 7.66193 24.4386C10.7328 12.1157 23.2137 4.61636 35.5344 7.68826C47.858 10.7602 55.3568 23.2419 52.2845 35.564Z" fill="white"/>
<g clip-path="url(#clip0_2837_39605)">
<path d="M30 48C39.9411 48 48 39.9411 48 30C48 20.0589 39.9411 12 30 12C20.0589 12 12 20.0589 12 30C12 39.9411 20.0589 48 30 48Z" fill="#E5A441"/>
<path d="M26.1984 39.612L26.6808 37.8228L28.6482 38.352L28.1658 40.1412C28.0038 40.7442 28.3602 41.367 28.965 41.529C29.5698 41.691 30.1908 41.3346 30.3528 40.7298L30.8352 38.9406L31.9566 39.243C31.9566 39.243 35.8878 39.8748 36.885 36.174C37.8822 32.4732 34.401 30.7956 34.1652 30.7326C33.9294 30.6696 37.1388 30.5418 37.8966 27.732C37.8966 27.732 38.946 23.8278 34.7934 22.6416L35.247 20.9568C35.409 20.3538 35.0526 19.731 34.4478 19.569C33.843 19.407 33.222 19.7634 33.06 20.3682L32.6064 22.0494L30.7056 21.5382L31.1592 19.857C31.3212 19.254 30.9648 18.6312 30.36 18.4692C29.7552 18.3072 29.1342 18.6636 28.9722 19.2684L28.5186 20.9496L27.9498 20.7966L26.8986 20.514L25.8474 20.2314C25.2444 20.0694 24.6216 20.4258 24.4596 21.0306C24.2976 21.6354 24.654 22.2564 25.2588 22.4184L26.31 22.701L23.1276 34.5198L22.0764 34.2372C21.4734 34.0752 20.8506 34.4316 20.6886 35.0364C20.5266 35.6412 20.883 36.2622 21.4878 36.4242L22.539 36.7068L23.5902 36.9894L24.4956 37.2324L24.0132 39.0216C23.8512 39.6246 24.2076 40.2474 24.8124 40.4094C25.4172 40.5714 26.0382 40.215 26.2002 39.6102L26.1984 39.612ZM27.7122 27.876C27.5106 27.1218 27.9588 26.3478 28.713 26.148L32.7594 25.0698C33.5136 24.8682 34.2876 25.3164 34.4874 26.0706C34.689 26.8248 34.2408 27.5988 33.4866 27.7986L29.4402 28.8768C28.686 29.0784 27.912 28.6302 27.7122 27.876ZM25.941 34.4478C25.7394 33.6936 26.1876 32.9196 26.9418 32.7198L30.9882 31.6416C31.7424 31.44 32.5164 31.8882 32.7162 32.6424C32.9178 33.3966 32.4696 34.1706 31.7154 34.3704L27.669 35.4486C26.9148 35.6502 26.1408 35.202 25.941 34.4478Z" fill="white"/>
</g>
<defs>
<clipPath id="clip0_2837_39605">
<rect width="36" height="36" fill="white" transform="translate(12 12)"/>
</clipPath>
</defs>
</svg>
