<svg width="73" height="73" viewBox="0 0 73 73" fill="none" xmlns="http://www.w3.org/2000/svg">
<circle cx="36.5" cy="36.5" r="35.0955" fill="#1DBDAF" stroke="#198F85" stroke-width="2.80892"/>
<path fill-rule="evenodd" clip-rule="evenodd" d="M36.2067 14.4228C33.2166 14.517 30.526 15.2859 28.4951 16.6265C27.8653 17.0423 27.4677 17.3665 26.9242 17.9077C26.2194 18.6094 25.7559 19.2255 25.2899 20.0801C25.0301 20.5567 24.7377 21.253 24.576 21.7801C24.4909 22.0576 24.477 22.133 24.4552 22.4359C24.4449 22.5794 24.4207 22.7969 24.4015 22.9193C24.3458 23.2744 24.3323 23.4555 24.3322 23.8538C24.3319 24.963 24.6002 26.009 25.1678 27.1112C25.6912 28.1275 26.3734 28.9744 27.2826 29.7368C29.1441 31.2977 31.6887 32.4373 34.5129 32.9748C34.8641 33.0416 35.3199 33.1113 36.7951 33.3234C40.0277 33.7883 41.499 34.0571 43.0436 34.465C44.5407 34.8603 45.7339 35.3006 46.8961 35.8865C47.7739 36.3291 48.4141 36.7304 49.1508 37.2997C49.9871 37.9459 50.9161 38.8979 51.4022 39.607C52.3061 40.9254 52.8204 42.4086 52.933 44.0214C52.9757 44.632 52.9334 45.6276 52.8416 46.1753C52.5137 48.1314 51.8284 49.9278 50.7294 51.7117C49.9497 52.9772 49.0007 54.217 48.0485 55.2138C47.9197 55.3486 47.8143 55.4628 47.8143 55.4674C47.8143 55.5012 47.9194 55.4405 48.2906 55.1923C52.5697 52.3315 55.7261 48.5102 56.878 44.7958C57.2564 43.5756 57.4244 42.5035 57.4247 41.3069C57.425 39.9598 57.2421 38.9514 56.7145 37.3909C56.2044 35.8822 55.2857 34.357 54.1111 33.0689C51.9892 30.7418 48.8532 29.0057 45.0574 28.0564C44.0166 27.7962 39.8409 26.8771 37.232 26.3341C37.1339 26.3137 36.9534 26.2652 36.8308 26.2265C36.7082 26.1877 36.2749 26.0603 35.868 25.9434C34.7057 25.6095 34.1633 25.4154 33.6778 25.1599C32.7119 24.6517 32.1529 23.9541 31.9617 23.0186C31.8987 22.7107 31.8985 22.6507 31.96 22.4208C32.1589 21.6772 32.5818 21.0988 33.238 20.6727C33.7651 20.3305 34.4922 20.0729 35.4846 19.8769C36.884 19.6006 38.3628 19.5329 39.969 19.6718C43.6201 19.9874 46.982 21.2433 50.0431 23.4351C51.0009 24.1209 51.8708 24.8572 52.7776 25.7495C53.9811 26.9338 55.0532 28.2159 56.0519 29.6656C56.7146 30.6274 57.6799 32.3805 58.254 33.6651C58.3511 33.8823 58.4439 34.0777 58.4602 34.0993C58.5368 34.2007 58.5477 34.0603 58.5032 33.546C58.4175 32.5549 58.2348 31.6197 57.9329 30.6268C57.1647 28.1004 56.0444 25.8226 54.5087 23.6646C54.3719 23.4724 54.17 23.188 54.0599 23.0327C51.8952 19.9765 48.5015 17.433 44.5847 15.9312C41.8061 14.8658 38.8782 14.3386 36.2067 14.4228ZM24.962 17.543C24.7354 17.6822 24.1365 18.0862 23.7866 18.3358C21.5964 19.8985 19.6738 21.7995 18.104 23.9546C17.4081 24.9099 16.7284 26.1909 16.2655 27.4195C15.8367 28.5576 15.6166 29.4975 15.4937 30.7158C15.4542 31.1069 15.4484 32.3137 15.4841 32.7005C15.5816 33.7569 15.7456 34.5141 16.0955 35.5233C16.3976 36.3946 16.6093 36.8484 16.95 37.3553C17.0059 37.4385 17.1003 37.5993 17.1597 37.7126C17.4494 38.2652 17.8526 38.8741 18.3002 39.435C20.3539 42.0088 23.6913 43.9156 28.0672 45.0154C28.5965 45.1485 29.471 45.3427 31.446 45.7659C33.127 46.126 33.8283 46.2817 34.6555 46.4784C36.3828 46.8893 38.1768 47.4083 38.8367 47.6882C39.3563 47.9086 39.8107 48.2137 40.213 48.6123L40.4482 48.8453L40.5641 49.0856C40.7007 49.3687 40.7922 49.6253 40.8458 49.8751C40.893 50.0955 40.9014 50.5185 40.8625 50.7143C40.8333 50.861 40.7502 51.1049 40.6866 51.2305C40.1968 52.1977 38.7603 52.9427 36.7773 53.2579C35.7466 53.4218 34.1331 53.4511 32.8101 53.33C28.2733 52.9149 23.8877 50.8908 20.3443 47.5766C19.7317 47.0036 18.8506 46.0375 18.1814 45.2052C16.7103 43.3752 15.5218 41.4223 14.5602 39.2547C14.3729 38.8323 14.3547 38.8248 14.3577 39.1713C14.3598 39.4145 14.4101 39.8394 14.4997 40.3724C15.1102 44.0028 16.9221 47.8164 19.4893 50.8745C20.0437 51.5349 20.9507 52.4752 21.5145 52.974C23.2214 54.4842 25.1658 55.7304 27.2648 56.6595C29.4583 57.6305 31.9702 58.2902 34.2752 58.5007C37.5511 58.7998 40.6741 58.3074 43.1201 57.1059C45.5755 55.8998 47.2524 54.0727 48.1463 51.6293C48.2605 51.3171 48.3424 51.0077 48.4097 50.6342C48.5029 50.1174 48.5171 49.9392 48.5174 49.2903C48.5177 48.6149 48.4952 48.3754 48.3774 47.8007C48.0283 46.098 47.0817 44.5522 45.6323 43.3183C44.8098 42.6181 44.0967 42.1433 43.1606 41.6726C42.8811 41.532 42.496 41.3378 42.3047 41.241C41.3622 40.7639 40.1075 40.3833 38.498 40.0863C37.6201 39.9243 35.1598 39.523 33.1488 39.2138C31.3739 38.9408 30.9105 38.8521 29.9029 38.5925C26.7823 37.7885 24.1868 36.3678 22.4012 34.4864C21.8244 33.8787 21.2655 33.1574 21.0174 32.7005C20.724 32.1604 20.423 31.4 20.2422 30.7425C20.0306 29.9729 19.9482 29.3844 19.9327 28.5313C19.9123 27.4049 20.0347 26.4956 20.3666 25.3063C20.647 24.3022 20.9147 23.6174 21.4077 22.6434C22.3064 20.8676 23.4153 19.2991 24.7997 17.8455C24.9689 17.6678 25.1183 17.5072 25.1318 17.4885C25.1746 17.4292 25.1174 17.4475 24.962 17.543Z" fill="white"/>
</svg>
