<svg width="38" height="38" viewBox="0 0 38 38" fill="none" xmlns="http://www.w3.org/2000/svg">
<circle cx="19" cy="19" r="18.25" fill="#119186" stroke="#FEDFA9" stroke-width="1.5"/>
<path fill-rule="evenodd" clip-rule="evenodd" d="M18.8463 7.50747C17.2898 7.5565 15.8892 7.95675 14.832 8.65463C14.5041 8.87106 14.2972 9.03984 14.0143 9.32154C13.6474 9.68678 13.4061 10.0075 13.1636 10.4524C13.0283 10.7004 12.8761 11.0629 12.7919 11.3373C12.7476 11.4818 12.7404 11.521 12.7291 11.6787C12.7237 11.7534 12.7111 11.8666 12.7011 11.9303C12.6721 12.1152 12.6651 12.2094 12.665 12.4168C12.6648 12.9941 12.8045 13.5387 13.1 14.1124C13.3725 14.6414 13.7275 15.0823 14.2008 15.4792C15.1698 16.2917 16.4944 16.8849 17.9645 17.1647C18.1474 17.1995 18.3846 17.2357 19.1526 17.3462C20.8353 17.5882 21.6011 17.7281 22.4052 17.9404C23.1845 18.1462 23.8056 18.3754 24.4106 18.6804C24.8675 18.9108 25.2008 19.1196 25.5843 19.416C26.0196 19.7524 26.5032 20.248 26.7562 20.6171C27.2268 21.3034 27.4945 22.0754 27.5531 22.915C27.5753 23.2328 27.5533 23.7511 27.5055 24.0362C27.3348 25.0544 26.9781 25.9895 26.406 26.9181C26.0001 27.5769 25.5061 28.2223 25.0105 28.7411C24.9434 28.8113 24.8886 28.8708 24.8886 28.8732C24.8886 28.8907 24.9433 28.8591 25.1365 28.73C27.364 27.2408 29.007 25.2516 29.6067 23.3181C29.8036 22.6829 29.8911 22.1249 29.8912 21.5019C29.8914 20.8007 29.7962 20.2758 29.5215 19.4635C29.256 18.6781 28.7778 17.8842 28.1664 17.2137C27.0618 16.0023 25.4294 15.0986 23.4535 14.6044C22.9117 14.469 20.738 13.9905 19.38 13.7079C19.3289 13.6972 19.2349 13.672 19.1711 13.6519C19.1073 13.6317 18.8818 13.5654 18.6699 13.5045C18.0649 13.3307 17.7826 13.2297 17.5298 13.0967C17.0271 12.8321 16.7361 12.469 16.6365 11.982C16.6037 11.8217 16.6036 11.7905 16.6357 11.6708C16.7392 11.2838 16.9593 10.9827 17.3009 10.7609C17.5753 10.5827 17.9538 10.4486 18.4704 10.3466C19.1988 10.2028 19.9686 10.1675 20.8047 10.2398C22.7053 10.4041 24.4553 11.0579 26.0488 12.1988C26.5473 12.5558 27.0002 12.9391 27.4722 13.4035C28.0987 14.02 28.6567 14.6875 29.1766 15.4421C29.5216 15.9428 30.0241 16.8553 30.3229 17.524C30.3735 17.6371 30.4218 17.7388 30.4303 17.75C30.4701 17.8028 30.4758 17.7297 30.4527 17.462C30.4081 16.9461 30.3129 16.4593 30.1558 15.9424C29.7559 14.6273 29.1727 13.4416 28.3733 12.3183C28.3021 12.2182 28.197 12.0702 28.1397 11.9893C27.0129 10.3984 25.2463 9.07442 23.2074 8.29265C21.761 7.73806 20.2369 7.46366 18.8463 7.50747ZM12.9928 9.13168C12.8749 9.20415 12.5631 9.41443 12.381 9.5444C11.2409 10.3578 10.2401 11.3474 9.42291 12.4692C9.06068 12.9665 8.70686 13.6333 8.46591 14.2729C8.24269 14.8653 8.12813 15.3546 8.06413 15.9888C8.04359 16.1923 8.04055 16.8205 8.05914 17.0219C8.10992 17.5718 8.19529 17.9659 8.37743 18.4913C8.53469 18.9449 8.64488 19.1811 8.8222 19.4449C8.85131 19.4882 8.90045 19.572 8.93138 19.631C9.08216 19.9186 9.29206 20.2356 9.52504 20.5275C10.5941 21.8673 12.3314 22.8599 14.6092 23.4324C14.8848 23.5017 15.34 23.6028 16.3681 23.823C17.2431 24.0105 17.6082 24.0916 18.0388 24.194C18.9379 24.4078 19.8718 24.678 20.2153 24.8237C20.4857 24.9384 20.7223 25.0972 20.9317 25.3048L21.0541 25.426L21.1145 25.5511C21.1856 25.6985 21.2332 25.832 21.2611 25.9621C21.2857 26.0768 21.2901 26.297 21.2698 26.399C21.2546 26.4753 21.2114 26.6023 21.1782 26.6677C20.9233 27.1711 20.1755 27.5589 19.1433 27.723C18.6067 27.8083 17.7668 27.8236 17.0781 27.7606C14.7166 27.5445 12.4336 26.4908 10.5891 24.7656C10.2702 24.4674 9.81157 23.9645 9.46322 23.5312C8.69743 22.5786 8.07876 21.562 7.57824 20.4337C7.4807 20.2138 7.47122 20.2099 7.47281 20.3903C7.47392 20.5168 7.50008 20.7381 7.54673 21.0155C7.86453 22.9053 8.8077 24.8905 10.1441 26.4823C10.4326 26.8261 10.9048 27.3156 11.1983 27.5752C12.0868 28.3613 13.0989 29.0101 14.1916 29.4937C15.3334 29.9992 16.6409 30.3426 17.8408 30.4521C19.5461 30.6079 21.1718 30.3515 22.445 29.7261C23.7231 29.0983 24.5961 28.1471 25.0614 26.8753C25.1208 26.7127 25.1635 26.5517 25.1985 26.3573C25.247 26.0882 25.2544 25.9954 25.2546 25.6577C25.2547 25.3061 25.243 25.1814 25.1817 24.8823C25 23.9959 24.5072 23.1913 23.7527 22.549C23.3246 22.1845 22.9534 21.9373 22.4661 21.6923C22.3206 21.6191 22.1201 21.518 22.0206 21.4676C21.5299 21.2193 20.8768 21.0212 20.039 20.8666C19.582 20.7822 18.3013 20.5733 17.2545 20.4124C16.3306 20.2703 16.0893 20.2241 15.5648 20.089C13.9404 19.6704 12.5893 18.9309 11.6598 17.9515C11.3596 17.6352 11.0686 17.2597 10.9395 17.0219C10.7868 16.7407 10.6301 16.3449 10.536 16.0026C10.4258 15.6021 10.3829 15.2957 10.3749 14.8516C10.3642 14.2653 10.4279 13.7919 10.6007 13.1729C10.7467 12.6502 10.886 12.2937 11.1426 11.7867C11.6105 10.8623 12.1877 10.0459 12.9084 9.28915C12.9964 9.19666 13.0742 9.11305 13.0812 9.10334C13.1035 9.07243 13.0737 9.08199 12.9928 9.13168Z" fill="#FEDFA9"/>
<path fill-rule="evenodd" clip-rule="evenodd" d="M18.8463 7.50747C17.2898 7.5565 15.8892 7.95675 14.832 8.65463C14.5041 8.87106 14.2972 9.03984 14.0143 9.32154C13.6474 9.68678 13.4061 10.0075 13.1636 10.4524C13.0283 10.7004 12.8761 11.0629 12.7919 11.3373C12.7476 11.4818 12.7404 11.521 12.7291 11.6787C12.7237 11.7534 12.7111 11.8666 12.7011 11.9303C12.6721 12.1152 12.6651 12.2094 12.665 12.4168C12.6648 12.9941 12.8045 13.5387 13.1 14.1124C13.3725 14.6414 13.7275 15.0823 14.2009 15.4792C15.1698 16.2917 16.4944 16.8849 17.9645 17.1647C18.1474 17.1995 18.3846 17.2357 19.1526 17.3462C20.8353 17.5882 21.6011 17.7281 22.4052 17.9404C23.1845 18.1462 23.8056 18.3754 24.4106 18.6804C24.8675 18.9108 25.2008 19.1196 25.5843 19.416C26.0196 19.7524 26.5032 20.248 26.7562 20.6171C27.2268 21.3034 27.4945 22.0754 27.5531 22.915C27.5753 23.2328 27.5533 23.7511 27.5055 24.0362C27.3348 25.0544 26.9781 25.9895 26.406 26.9181C26.0001 27.5769 25.5061 28.2223 25.0105 28.7411C24.9434 28.8113 24.8886 28.8708 24.8886 28.8732C24.8886 28.8907 24.9433 28.8591 25.1365 28.73C27.364 27.2408 29.007 25.2516 29.6067 23.3181C29.8036 22.6829 29.8911 22.1249 29.8912 21.5019C29.8914 20.8007 29.7962 20.2758 29.5215 19.4635C29.256 18.6781 28.7778 17.8842 28.1664 17.2137C27.0618 16.0023 25.4294 15.0986 23.4535 14.6044C22.9117 14.469 20.738 13.9905 19.38 13.7079C19.3289 13.6972 19.2349 13.672 19.1711 13.6519C19.1073 13.6317 18.8818 13.5654 18.6699 13.5045C18.0649 13.3307 17.7826 13.2297 17.5298 13.0967C17.0271 12.8321 16.7361 12.469 16.6365 11.982C16.6037 11.8217 16.6036 11.7905 16.6357 11.6708C16.7392 11.2838 16.9593 10.9827 17.3009 10.7609C17.5753 10.5827 17.9538 10.4486 18.4704 10.3466C19.1988 10.2028 19.9686 10.1675 20.8047 10.2398C22.7053 10.4041 24.4553 11.0579 26.0488 12.1988C26.5473 12.5558 27.0002 12.9391 27.4722 13.4035C28.0987 14.02 28.6567 14.6875 29.1766 15.4421C29.5216 15.9428 30.0241 16.8553 30.3229 17.524C30.3735 17.6371 30.4218 17.7388 30.4303 17.75C30.4701 17.8028 30.4758 17.7297 30.4527 17.462C30.4081 16.9461 30.3129 16.4593 30.1558 15.9424C29.7559 14.6273 29.1727 13.4416 28.3733 12.3183C28.3021 12.2182 28.197 12.0702 28.1397 11.9893C27.0129 10.3984 25.2463 9.07442 23.2074 8.29265C21.761 7.73806 20.2369 7.46366 18.8463 7.50747Z" fill="#FEDFA9"/>
</svg>
