<svg width="61" height="60" viewBox="0 0 61 60" fill="none" xmlns="http://www.w3.org/2000/svg">
<g clip-path="url(#clip0_2837_39705)">
<circle cx="30.973" cy="30" r="30" fill="white"/>
<path d="M46.7427 15.4933L45.3698 16.8661C48.6457 20.4486 50.4624 25.1272 50.4624 29.9817C50.4624 34.8361 48.6457 39.5147 45.3698 43.0972L46.7427 44.47C50.3858 40.5184 52.4085 35.3404 52.4085 29.9656C52.4085 24.5909 50.3858 19.4129 46.7427 15.4612V15.4933Z" fill="#5A5564"/>
<path d="M17.8712 15.6123C21.4536 12.3364 26.1323 10.5198 30.9867 10.5198C35.8411 10.5198 40.5197 12.3364 44.1022 15.6123L45.475 14.2395C41.5234 10.5963 36.3454 8.57367 30.9706 8.57367C25.5959 8.57367 20.4179 10.5963 16.4662 14.2395L17.8712 15.6123Z" fill="#5A5564"/>
<path d="M16.5853 43.1109C13.3133 39.5293 11.499 34.8535 11.499 30.0023C11.499 25.1511 13.3133 20.4752 16.5853 16.8936L15.2124 15.5208C11.5693 19.4724 9.54663 24.6504 9.54663 30.0251C9.54663 35.3999 11.5693 40.5779 15.2124 44.5295L16.5853 43.1109Z" fill="#5A5564"/>
<path d="M44.0839 44.3785C40.5014 47.6544 35.8228 49.4711 30.9684 49.4711C26.1139 49.4711 21.4353 47.6544 17.8529 44.3785L16.48 45.7514C20.4317 49.3946 25.6096 51.4172 30.9844 51.4172C36.3591 51.4172 41.5371 49.3946 45.4888 45.7514L44.0839 44.3785Z" fill="#5A5564"/>
<path d="M39.6404 25.4192C39.3658 22.5544 36.8946 21.5934 33.7691 21.3006V17.3558H31.3528V21.2273C30.7167 21.2273 30.0669 21.2273 29.4216 21.2273V17.3558H27.0237V21.328H22.1225V23.9136C22.1225 23.9136 23.9073 23.8816 23.8798 23.9136C24.2016 23.8782 24.5246 23.9691 24.7807 24.1671C25.0368 24.3652 25.206 24.6549 25.2527 24.9753V35.8484C25.2458 35.9614 25.2163 36.0719 25.166 36.1733C25.1157 36.2747 25.0456 36.3649 24.9598 36.4388C24.8756 36.514 24.7771 36.5714 24.6701 36.6076C24.5632 36.6438 24.45 36.6579 24.3374 36.6493C24.3695 36.6767 22.5802 36.6493 22.5802 36.6493L22.1225 39.5369H26.9779V43.5731H29.3942V39.5964H31.3253V43.5548H33.7462V39.5643C37.8282 39.3172 40.6746 38.3104 41.0316 34.4893C41.3199 31.414 39.8738 30.0412 37.5628 29.4874C38.9677 28.7964 39.8372 27.5151 39.6404 25.4192ZM36.254 34.0134C36.254 37.0154 31.1103 36.6721 29.472 36.6721V31.3454C31.1103 31.35 36.254 30.8786 36.254 34.0134ZM35.1328 26.5083C35.1328 29.2541 30.8403 28.92 29.4765 28.92V24.0783C30.8403 24.0783 35.1328 23.6482 35.1328 26.5083Z" fill="#F09242"/>
<path d="M30.9684 55C26.0243 54.9991 21.1914 53.5322 17.0809 50.7848C12.9703 48.0375 9.76673 44.133 7.87511 39.565C5.98349 34.997 5.48879 29.9707 6.45356 25.1216C7.41834 20.2725 9.79927 15.8184 13.2953 12.3223C16.7913 8.8263 21.2455 6.44538 26.0946 5.4806C30.9437 4.51583 35.97 5.01052 40.5379 6.90215C45.1059 8.79377 49.0104 11.9974 51.7578 16.1079C54.5052 20.2184 55.9721 25.0513 55.973 29.9954C55.9736 33.2793 55.3272 36.531 54.0708 39.565C52.8145 42.599 50.9727 45.3557 48.6506 47.6777C46.3286 49.9997 43.5719 51.8415 40.5379 53.0979C37.504 54.3543 34.2522 55.0006 30.9684 55ZM30.9684 6.94949C26.4133 6.95311 21.9616 8.30704 18.1758 10.8401C14.39 13.3733 11.4402 16.9718 9.69911 21.181C7.95804 25.3903 7.50391 30.0211 8.39412 34.4884C9.28432 38.9556 11.4789 43.0587 14.7005 46.279C17.922 49.4993 22.026 51.6922 26.4936 52.5806C30.9612 53.4691 35.5919 53.0131 39.8004 51.2704C44.0089 49.5276 47.6063 46.5764 50.1379 42.7896C52.6695 39.0028 54.0217 34.5505 54.0235 29.9954C54.0247 26.9679 53.4291 23.9698 52.2708 21.1726C51.1125 18.3754 49.4142 15.8339 47.2729 13.6936C45.1317 11.5532 42.5896 9.85588 39.7919 8.69868C36.9943 7.54148 33.9959 6.94708 30.9684 6.94949Z" fill="#282138"/>
</g>
<defs>
<clipPath id="clip0_2837_39705">
<rect width="60" height="60" fill="white" transform="translate(0.972961)"/>
</clipPath>
</defs>
</svg>
