<svg width="60" height="60" viewBox="0 0 60 60" fill="none" xmlns="http://www.w3.org/2000/svg">
<g clip-path="url(#clip0_2930_5766)">
<circle cx="30" cy="30" r="30" fill="white"/>
<g clip-path="url(#clip1_2930_5766)">
<path d="M32.4039 52.5323C21.089 52.5323 11.8834 43.3272 11.8834 32.0123C11.8834 20.6974 21.089 11.4918 32.4039 11.4918C43.7188 11.4918 52.9239 20.6974 52.9239 32.0123C52.9239 43.3272 43.7188 52.5323 32.4039 52.5323Z" fill="#DD1438"/>
<path d="M33.7464 52.1488C21.9963 52.1488 12.4366 42.5897 12.4366 30.8397C12.4366 19.0896 21.9963 9.52991 33.7464 9.52991C45.4965 9.52991 55.0556 19.0896 55.0556 30.8397C55.0556 42.5897 45.4965 52.1488 33.7464 52.1488Z" fill="white"/>
<path d="M33.7464 8.4235C38.6879 8.4235 43.2549 10.0238 46.96 12.7322C42.8864 7.45318 36.4981 4.05231 29.3144 4.05231C17.0109 4.05231 7.03717 14.026 7.03717 26.3296C7.03717 33.3721 10.3059 39.6501 15.4083 43.7322C12.8399 40.0855 11.3307 35.6389 11.3307 30.8391C11.3307 18.4591 21.3669 8.4235 33.7464 8.4235Z" fill="#EC1C79"/>
<path d="M47.5523 11.808C47.5107 11.6832 47.4466 11.5633 47.3577 11.4553C42.8948 6.04804 36.3181 2.94641 29.3144 2.94641C16.4208 2.94641 5.93073 13.4365 5.93073 26.3301C5.93073 33.4328 9.09816 40.0557 14.6236 44.5219C14.8109 44.7835 15.0038 45.0405 15.2013 45.2937C10.3492 46.0446 7.08891 47.5144 7.08891 49.5838C7.08891 52.6894 13.7821 54.405 23.474 54.405C26.3725 54.405 28.9308 54.3426 31.1757 54.2211C32.02 54.3133 32.8773 54.3623 33.7458 54.3623C46.7159 54.3623 57.2678 43.8103 57.2678 30.8402C57.2678 23.0243 53.4355 16.0881 47.5518 11.8086L47.5523 11.808ZM29.3144 5.15872C33.2733 5.15872 37.0814 6.25335 40.3675 8.2671C38.2666 7.64947 36.0447 7.31704 33.7463 7.31704C23.3086 7.31704 14.438 14.152 11.3718 23.58L8.55591 22.1648C10.496 12.4785 19.0657 5.15816 29.3144 5.15816V5.15872ZM8.19985 27.8545C8.16385 27.3493 8.1436 26.8408 8.1436 26.3295C8.1436 25.7052 8.17229 25.087 8.22572 24.4761L10.7783 25.7586C10.5511 26.7863 10.3908 27.8387 10.3036 28.912L8.19985 27.855V27.8545ZM8.55535 30.51L10.2305 31.3515C10.2732 33.3304 10.5618 35.2491 11.0658 37.08C9.86991 35.0539 9.01997 32.8365 8.55535 30.51ZM33.7463 52.1488C21.9963 52.1488 12.4366 42.5897 12.4366 30.8397C12.4366 19.0896 21.9963 9.52991 33.7463 9.52991C45.4964 9.52991 55.0555 19.0896 55.0555 30.8397C55.0555 42.5897 45.4964 52.1488 33.7463 52.1488Z" fill="black"/>
<path d="M19.114 32.8247L20.324 36.9754L21.7235 32.8247H23.4245L24.7295 36.8758C24.9843 36.9045 24.8825 36.8713 24.9241 36.7307C25.3077 35.4263 25.6025 34.0791 26.1324 32.8247H28.1169L25.7842 40.126L23.9437 40.0776L22.5509 35.9854L21.134 40.122L19.3177 40.1254L16.985 32.8242H19.1146L19.114 32.8247Z" fill="black"/>
<path d="M44.5739 32.8247V35.4921H47.0905V32.8247H49.1234V39.9876L48.9783 40.1361H47.0905V37.3691H44.5739V39.9876L44.4288 40.1361H42.541V32.8247H44.5739Z" fill="black"/>
<path d="M34.6998 32.8247V34.5043H30.9243V35.5911H34.3122V37.2707H30.9243V38.3575H34.6514L34.7965 38.5054V39.9876L34.6514 40.1361H28.8914V32.8247H34.6998Z" fill="black"/>
<path d="M41.6698 32.8247V34.6028H39.5401V40.1361H37.5073V34.6028H35.3771V32.8247H41.6698Z" fill="black"/>
<path d="M33.0539 29.5695C36.3171 29.5695 38.9624 26.8698 38.9624 23.5395C38.9624 20.2092 36.3171 17.5095 33.0539 17.5095C29.7908 17.5095 27.1454 20.2092 27.1454 23.5395C27.1454 26.8698 29.7908 29.5695 33.0539 29.5695Z" fill="#DD1438"/>
<path d="M36.4036 20.5982C36.2562 20.236 36.0374 19.908 35.7601 19.6363C35.4806 19.3697 35.1554 19.1577 34.8005 19.0108C34.5597 18.913 34.3066 18.85 34.049 18.823C32.4588 18.5974 30.9907 19.7308 30.7702 21.3537C30.7089 21.8048 30.7499 22.2643 30.8906 22.6969V22.7053C30.674 22.8426 30.4765 23.0085 30.3027 23.1987C30.0344 23.4855 29.8229 23.823 29.6795 24.1915C29.5417 24.5605 29.4725 24.9531 29.4753 25.348C29.4764 25.7406 29.5569 26.1282 29.7116 26.4876C29.8595 26.8498 30.0783 27.1772 30.3551 27.4495C30.6357 27.7161 30.9614 27.9282 31.3164 28.075C31.6392 28.2049 31.9824 28.2752 32.33 28.282H32.3823C33.9922 28.2943 35.3073 26.9725 35.3197 25.3294C35.3219 25.0161 35.2758 24.7039 35.1824 24.4052C35.4125 24.2629 35.6223 24.0891 35.8057 23.8883C36.0762 23.6025 36.29 23.2656 36.4357 22.8972C36.5746 22.5276 36.6449 22.1344 36.6416 21.739C36.6399 21.3463 36.5589 20.9582 36.4036 20.5993V20.5982ZM33.8561 20.812C33.8347 20.7186 33.8251 20.623 33.8274 20.5273C33.9326 20.5453 34.0361 20.5752 34.1351 20.6168C34.274 20.6781 34.3977 20.7703 34.4967 20.8873C34.5924 21.0021 34.6666 21.1337 34.7161 21.2755C34.7622 21.4155 34.7836 21.5623 34.7802 21.7097C34.7645 21.9853 34.6497 22.2447 34.4574 22.4387L33.8561 20.8114V20.812ZM34.544 22.6705C34.5626 22.653 34.5811 22.6345 34.598 22.6153C34.7139 22.4899 34.8044 22.3425 34.8629 22.1811C34.9197 22.0208 34.9456 21.8515 34.9406 21.681C34.9383 21.5145 34.9012 21.3503 34.8309 21.2001C34.7594 21.0555 34.6632 20.9245 34.5474 20.8142C34.4332 20.7079 34.2993 20.6252 34.1536 20.5712C34.0479 20.5347 33.9376 20.5138 33.8257 20.5093C33.8319 20.3209 33.8791 20.137 33.9641 19.9699C34.0923 19.9947 34.2172 20.0352 34.3359 20.0908C34.5423 20.1882 34.7285 20.3243 34.8849 20.4925C35.0306 20.6652 35.1481 20.8609 35.2331 21.0718C35.3084 21.2822 35.3461 21.505 35.3427 21.7288C35.3461 21.9522 35.2972 22.1732 35.201 22.3735C35.1222 22.5754 34.9985 22.756 34.8393 22.9011C34.7864 22.9489 34.7302 22.9922 34.6706 23.0305L34.544 22.6722V22.6705ZM34.7583 23.2482C34.8404 23.1863 34.9175 23.1182 34.9895 23.0445C35.3197 22.6767 35.5002 22.1952 35.4963 21.6962C35.4924 21.4527 35.4395 21.213 35.3411 20.9914C35.246 20.7715 35.1076 20.5746 34.9338 20.412C34.7656 20.2512 34.5682 20.1257 34.3527 20.043C34.229 19.9992 34.1013 19.9682 33.9708 19.9519C34.0254 19.8478 34.0946 19.7522 34.1767 19.669C34.2397 19.6032 34.31 19.5452 34.3859 19.4968C34.4433 19.5171 34.5001 19.5407 34.5547 19.5677C34.8286 19.6864 35.075 19.8625 35.2775 20.0847C35.4845 20.3029 35.6482 20.56 35.759 20.8412C35.8636 21.123 35.9159 21.4223 35.9142 21.7238C35.9013 22.0202 35.8377 22.3116 35.7269 22.5855C35.6077 22.8488 35.4417 23.0873 35.237 23.2887C35.1312 23.3978 35.0131 23.4945 34.8854 23.5767L34.7572 23.2476L34.7583 23.2482ZM31.6859 27.5715C31.6387 27.5552 31.5926 27.5367 31.5476 27.5147C31.2736 27.396 31.0272 27.22 30.8247 26.9978C30.6222 26.7795 30.4631 26.5242 30.3551 26.2446C30.2504 25.9628 30.1981 25.6635 30.1998 25.362C30.2127 25.0656 30.2763 24.7742 30.3871 24.5003C30.5064 24.2365 30.6723 23.9974 30.8771 23.7955C30.9755 23.6937 31.0835 23.602 31.1999 23.5215L31.3282 23.8663C31.2551 23.9226 31.1859 23.9839 31.1206 24.0492C30.9564 24.2308 30.8275 24.4435 30.742 24.6747C30.6532 24.9053 30.6099 25.1511 30.6138 25.3986C30.6177 25.6422 30.6706 25.8818 30.7691 26.1034C30.9631 26.5393 31.3186 26.8797 31.7574 27.0501C31.8671 27.09 31.9801 27.1193 32.0954 27.1378C32.0409 27.2363 31.9739 27.3268 31.8963 27.4067C31.8327 27.4697 31.7624 27.5254 31.6871 27.5721L31.6859 27.5715ZM31.772 26.9905C31.5656 26.8932 31.3794 26.757 31.223 26.5888C31.0779 26.4167 30.9603 26.2215 30.8748 26.0112C30.7994 25.8002 30.7623 25.5769 30.7651 25.3525C30.7617 25.1292 30.8107 24.9081 30.9069 24.7078C30.9856 24.5059 31.1094 24.3253 31.2686 24.1802C31.3113 24.1403 31.3563 24.1026 31.4036 24.0683L31.5369 24.4373L31.5048 24.4699C31.3889 24.5953 31.2984 24.7427 31.2399 24.9042C31.1831 25.0645 31.1572 25.2338 31.1622 25.4042C31.1645 25.5707 31.2016 25.735 31.2719 25.8852C31.3434 26.0297 31.4396 26.1608 31.5554 26.271C31.6696 26.3773 31.8035 26.46 31.9492 26.514C32.0459 26.5478 32.1461 26.5675 32.2479 26.5725C32.24 26.7604 32.1905 26.9438 32.1027 27.1086C31.9885 27.0816 31.8772 27.0417 31.7714 26.9899L31.772 26.9905ZM32.2299 26.2632C32.2479 26.3577 32.2557 26.4533 32.2535 26.5495C32.1573 26.5303 32.0634 26.5011 31.9734 26.4634C31.8344 26.4021 31.7107 26.3098 31.6117 26.1928C31.5161 26.0781 31.4418 25.9465 31.3923 25.8047C31.3462 25.6647 31.3248 25.5178 31.3282 25.3705C31.3439 25.1061 31.4502 24.8558 31.6291 24.6634L32.2304 26.2632H32.2299ZM29.8179 26.4358C29.6936 26.086 29.63 25.717 29.6306 25.3446C29.6474 24.975 29.7279 24.6117 29.8685 24.2708C30.0147 23.9333 30.2229 23.6267 30.4816 23.3691C30.6335 23.215 30.8034 23.0811 30.9884 22.9708L31.0829 23.2262C30.9344 23.3241 30.7977 23.44 30.6757 23.571C30.4591 23.8129 30.2926 24.0964 30.1857 24.4052C30.0794 24.7095 30.0271 25.0302 30.0305 25.3536C30.0434 25.6737 30.1132 25.9881 30.2364 26.2828C30.4923 26.8611 30.9586 27.315 31.5369 27.5485C31.5774 27.5642 31.6196 27.576 31.6617 27.5901C31.4744 27.7026 31.2624 27.765 31.0452 27.7729C30.9665 27.7729 30.8883 27.7639 30.8124 27.7453C30.6712 27.6435 30.5401 27.5282 30.4203 27.4005C30.1582 27.1288 29.9529 26.806 29.8173 26.4505V26.4364L29.8179 26.4358ZM36.236 22.788C36.0897 23.1255 35.8816 23.4321 35.6229 23.6897C35.4631 23.8573 35.282 24.0025 35.084 24.1206L34.9895 23.8652C35.1509 23.7651 35.2989 23.6436 35.4288 23.503C35.6482 23.2662 35.8181 22.9866 35.9289 22.6806C36.0352 22.3763 36.0875 22.0557 36.0841 21.7322C36.0712 21.4122 36.0014 21.0977 35.8782 20.803C35.6223 20.2247 35.156 19.7708 34.5777 19.5373C34.5254 19.5165 34.4697 19.5013 34.409 19.4839C34.6762 19.323 34.9929 19.2718 35.2955 19.341C35.4361 19.4434 35.5672 19.5587 35.6876 19.6858C35.9486 19.957 36.1522 20.2798 36.2872 20.6342C36.4115 20.9841 36.4751 21.3531 36.4745 21.7255C36.4593 22.0956 36.3794 22.4595 36.2399 22.801L36.2366 22.7869L36.236 22.788Z" fill="white"/>
</g>
</g>
<defs>
<clipPath id="clip0_2930_5766">
<rect width="60" height="60" fill="white"/>
</clipPath>
<clipPath id="clip1_2930_5766">
<rect width="65" height="65" fill="white" transform="translate(-2.5 -2.5)"/>
</clipPath>
</defs>
</svg>
