<svg width="61" height="60" viewBox="0 0 61 60" fill="none" xmlns="http://www.w3.org/2000/svg">
<g clip-path="url(#clip0_2837_39757)">
<circle cx="30.973" cy="30" r="30" fill="white"/>
<path d="M55.975 30.001C55.975 43.8056 44.7807 54.998 30.968 55C17.1652 55 5.97096 43.8056 5.97296 29.999C5.96896 16.1924 17.1632 5 30.972 5C44.7807 5 55.975 16.1944 55.975 30.001Z" fill="#EAB300"/>
<path d="M40.8099 23.8767C40.4879 20.5286 37.5973 19.4066 33.9446 19.0866V14.4404H31.118V18.9625C30.3759 18.9625 29.6157 18.9766 28.8616 18.9926V14.4404H26.035L26.033 19.0826C25.4209 19.0946 24.8187 19.1066 24.2326 19.1066V19.0926L20.3338 19.0906V22.1107C20.3338 22.1107 22.4223 22.0707 22.3863 22.1087C23.5325 22.1087 23.9046 22.7727 24.0126 23.3467V28.6389C24.0926 28.6389 24.1946 28.6429 24.3106 28.6589H24.0126L24.0106 36.0732C23.9606 36.4333 23.7485 37.0073 22.9484 37.0093C22.9844 37.0413 20.894 37.0093 20.894 37.0093L20.3318 40.3854H24.0126C24.6967 40.3854 25.3709 40.3974 26.031 40.4014L26.033 45.0996H28.8576V40.4514C29.6317 40.4674 30.3819 40.4734 31.116 40.4734L31.114 45.0996H33.9406V40.4114C38.6935 40.1394 42.0242 38.9414 42.4363 34.4772C42.7703 30.883 41.08 29.277 38.3815 28.6289C40.0238 27.7969 41.05 26.3268 40.8099 23.8767ZM36.8532 33.9212C36.8532 37.4313 30.842 37.0333 28.9236 37.0333V30.807C30.842 30.811 36.8532 30.261 36.8532 33.9212ZM35.5369 25.1388C35.5369 28.3329 30.5199 27.9589 28.9236 27.9609V22.3167C30.5219 22.3167 35.5389 21.8087 35.5369 25.1388Z" fill="white"/>
<path d="M24.0166 28.515H24.4367V28.825H24.0166V28.515Z" fill="white"/>
</g>
<g clip-path="url(#clip1_2837_39757)">
<path d="M30.973 55C44.7801 55 55.973 43.8071 55.973 30C55.973 16.1929 44.7801 5 30.973 5C17.1658 5 5.97296 16.1929 5.97296 30C5.97296 43.8071 17.1658 55 30.973 55Z" fill="#E5A441"/>
<path d="M25.693 43.35L26.363 40.865L29.0955 41.6L28.4255 44.085C28.2005 44.9225 28.6955 45.7875 29.5355 46.0125C30.3755 46.2375 31.238 45.7425 31.463 44.9025L32.133 42.4175L33.6905 42.8375C33.6905 42.8375 39.1505 43.715 40.5355 38.575C41.9205 33.435 37.0855 31.105 36.758 31.0175C36.4305 30.93 40.888 30.7525 41.9405 26.85C41.9405 26.85 43.398 21.4275 37.6305 19.78L38.2605 17.44C38.4855 16.6025 37.9905 15.7375 37.1505 15.5125C36.3105 15.2875 35.448 15.7825 35.223 16.6225L34.593 18.9575L31.953 18.2475L32.583 15.9125C32.808 15.075 32.313 14.21 31.473 13.985C30.633 13.76 29.7705 14.255 29.5455 15.095L28.9155 17.43L28.1255 17.2175L26.6655 16.825L25.2055 16.4325C24.368 16.2075 23.503 16.7025 23.278 17.5425C23.053 18.3825 23.548 19.245 24.388 19.47L25.848 19.8625L21.428 36.2775L19.968 35.885C19.1305 35.66 18.2655 36.155 18.0405 36.995C17.8155 37.835 18.3105 38.6975 19.1505 38.9225L20.6105 39.315L22.0705 39.7075L23.328 40.045L22.658 42.53C22.433 43.3675 22.928 44.2325 23.768 44.4575C24.608 44.6825 25.4705 44.1875 25.6955 43.3475L25.693 43.35ZM27.7955 27.05C27.5155 26.0025 28.138 24.9275 29.1855 24.65L34.8055 23.1525C35.853 22.8725 36.928 23.495 37.2055 24.5425C37.4855 25.59 36.863 26.665 35.8155 26.9425L30.1955 28.44C29.148 28.72 28.073 28.0975 27.7955 27.05ZM25.3355 36.1775C25.0555 35.13 25.678 34.055 26.7255 33.7775L32.3455 32.28C33.393 32 34.468 32.6225 34.7455 33.67C35.0255 34.7175 34.403 35.7925 33.3555 36.07L27.7355 37.5675C26.688 37.8475 25.613 37.225 25.3355 36.1775Z" fill="white"/>
</g>
<defs>
<clipPath id="clip0_2837_39757">
<rect width="60" height="60" fill="white" transform="translate(0.972961)"/>
</clipPath>
<clipPath id="clip1_2837_39757">
<rect width="50" height="50" fill="white" transform="translate(5.97296 5)"/>
</clipPath>
</defs>
</svg>
