<svg width="61" height="60" viewBox="0 0 61 60" fill="none" xmlns="http://www.w3.org/2000/svg">
<g clip-path="url(#clip0_2837_39699)">
<circle cx="30.973" cy="30" r="30" fill="white"/>
<path d="M30.973 54.12L54.973 31.08L46.333 11.88L15.613 11.88L6.97296 31.08L30.973 54.12Z" fill="#50AF95"/>
<path d="M33.8559 32.1945V32.1914C33.6909 32.2034 32.8404 32.2545 30.9429 32.2545C29.4279 32.2545 28.3614 32.2094 27.9864 32.1914V32.196C22.1544 31.9395 17.8014 30.9239 17.8014 29.7089C17.8014 28.4954 22.1544 27.4799 27.9864 27.2189V31.1849C28.3674 31.2119 29.4594 31.2764 30.9684 31.2764C32.7789 31.2764 33.6864 31.2014 33.8559 31.1864V27.222C39.6759 27.4815 44.0184 28.4969 44.0184 29.7089C44.0184 30.9239 39.6759 31.9365 33.8559 32.1945ZM33.8559 26.8095V23.2605H41.9769V17.8484H19.8654V23.2605H27.9864V26.808C21.3864 27.111 16.4229 28.4189 16.4229 29.9849C16.4229 31.5509 21.3864 32.8575 27.9864 33.162V44.535H33.8559V33.1589C40.4454 32.8559 45.3969 31.5494 45.3969 29.9849C45.3969 28.4204 40.4454 27.114 33.8559 26.8095Z" fill="white"/>
</g>
<defs>
<clipPath id="clip0_2837_39699">
<rect width="60" height="60" fill="white" transform="translate(0.972961)"/>
</clipPath>
</defs>
</svg>
