<svg width="60" height="60" viewBox="0 0 60 60" fill="none" xmlns="http://www.w3.org/2000/svg">
<circle cx="30" cy="30" r="30" fill="white"/>
<g clip-path="url(#clip0_2837_39731)">
<path d="M29.9729 55C43.8272 55 54.9729 43.8543 54.9729 30C54.9729 16.1458 43.8272 5 29.9729 5C16.1187 5 4.97295 16.1458 4.97295 30C4.97295 43.8543 16.1187 55 29.9729 55Z" fill="#2775CA"/>
<path d="M36.8479 33.9583C36.8479 30.3125 34.6604 29.0625 30.2854 28.5418C27.1604 28.125 26.5354 27.2918 26.5354 25.8333C26.5354 24.3748 27.5772 23.4375 29.6604 23.4375C31.5354 23.4375 32.5772 24.0625 33.0979 25.625C33.2022 25.9375 33.5147 26.1458 33.8272 26.1458H35.4937C35.9104 26.1458 36.2229 25.8333 36.2229 25.4168V25.3125C35.8062 23.0208 33.9312 21.25 31.5354 21.0418V18.5418C31.5354 18.125 31.2229 17.8125 30.7022 17.7083H29.1397C28.7229 17.7083 28.4104 18.0208 28.3062 18.5418V20.9375C25.1812 21.3543 23.2022 23.4375 23.2022 26.0418C23.2022 29.4793 25.2854 30.8333 29.6604 31.3543C32.5772 31.875 33.5147 32.5 33.5147 34.1668C33.5147 35.8335 32.0562 36.9793 30.0772 36.9793C27.3687 36.9793 26.4312 35.8333 26.1187 34.2708C26.0147 33.8543 25.7022 33.6458 25.3897 33.6458H23.6187C23.2022 33.6458 22.8897 33.9583 22.8897 34.375V34.4793C23.3062 37.0833 24.9729 38.9583 28.4104 39.4793V41.9793C28.4104 42.3958 28.7229 42.7083 29.2437 42.8125H30.8062C31.2229 42.8125 31.5354 42.5 31.6397 41.9793V39.4793C34.7647 38.9583 36.8479 36.7708 36.8479 33.9583Z" fill="white"/>
<path d="M24.6604 44.8957C16.5354 41.9792 12.3687 32.9167 15.3897 24.8957C16.9522 20.5207 20.3897 17.1875 24.6604 15.625C25.0772 15.4167 25.2854 15.1042 25.2854 14.5832V13.125C25.2854 12.7082 25.0772 12.3957 24.6604 12.2917C24.5562 12.2917 24.3479 12.2917 24.2437 12.3957C14.3479 15.5207 8.9312 26.0417 12.0562 35.9375C13.9312 41.7707 18.4104 46.25 24.2437 48.125C24.6604 48.3332 25.0772 48.125 25.1812 47.7082C25.2854 47.6042 25.2854 47.5 25.2854 47.2917V45.8332C25.2854 45.5207 24.9729 45.1042 24.6604 44.8957ZM35.7022 12.3957C35.2854 12.1875 34.8687 12.3957 34.7647 12.8125C34.6604 12.9167 34.6604 13.0207 34.6604 13.2292V14.6875C34.6604 15.1042 34.9729 15.5207 35.2854 15.7292C43.4104 18.6457 47.5772 27.7082 44.5562 35.7292C42.9937 40.1042 39.5562 43.4375 35.2854 45C34.8687 45.2082 34.6604 45.5207 34.6604 46.0417V47.5C34.6604 47.9167 34.8687 48.2292 35.2854 48.3332C35.3897 48.3332 35.5979 48.3332 35.7022 48.2292C45.5979 45.1042 51.0147 34.5832 47.8897 24.6875C46.0147 18.75 41.4312 14.2707 35.7022 12.3957Z" fill="white"/>
</g>
<defs>
<clipPath id="clip0_2837_39731">
<rect width="50" height="50" fill="white" transform="translate(4.97295 5)"/>
</clipPath>
</defs>
</svg>
